<?xml version="1.0" encoding="utf-8"?>
<!-- Generator: Adobe Illustrator 23.0.0, SVG Export Plug-In . SVG Version: 6.00 Build 0)  -->
<svg version="1.1" id="Layer_1" xmlns="http://www.w3.org/2000/svg" xmlns:xlink="http://www.w3.org/1999/xlink" x="0px" y="0px"
	 viewBox="0 0 116.4 28.9" style="enable-background:new 0 0 116.4 28.9;" xml:space="preserve">
<style type="text/css">
	.st0{fill-rule:evenodd;clip-rule:evenodd;fill:#FFFFFF;}
</style>
<path class="st0" d="M108.7,11.3h3.6v2.6c0.7-1.8,1.9-2.9,4.1-2.8v3.8h-0.2c-2.4,0-3.9,1.5-3.9,4.5v4.7h-3.6V11.3z"/>
<path id="_x3C_Path_x3E_" class="st0" d="M104.7,21.2h-4.1c-1.6,0-2.8-0.6-3.1-2.2h8.9c0-0.3,0-0.7,0-1c0-3.6-2-6.9-6.2-6.9
	c-3.7,0-6.3,3-6.3,6.7l0,0c0,3.9,2.8,6.6,6.7,6.6h2.1L104.7,21.2z M100.1,14c1.5,0,2.5,1.1,2.7,2.7h-5.5C97.6,15.1,98.6,14,100.1,14
	z"/>
<path class="st0" d="M83.3,17c0-1.7,0.9-2.6,2.3-2.6s2.2,0.9,2.2,2.6v7.1h3.6v-8.3c0-2.9-1.6-4.8-4.3-4.8c-1.8,0-2.9,1-3.7,2.1v-1.8
	h-3.6v12.8h3.6L83.3,17L83.3,17z"/>
<path class="st0" d="M69.7,11.3h3.6v2.6c0.7-1.8,1.9-2.9,4.1-2.8v3.8h-0.2c-2.4,0-3.9,1.5-3.9,4.5v4.7h-3.6V11.3z"/>
<path id="_x3C_Path_x3E__1_" class="st0" d="M65.6,21.2h-4.1c-1.6,0-2.8-0.6-3.1-2.2h8.9c0-0.3,0-0.7,0-1c0-3.6-2-6.9-6.2-6.9
	c-3.7,0-6.3,3-6.3,6.7l0,0c0,3.9,2.8,6.6,6.7,6.6h2.1L65.6,21.2z M61.1,14c1.5,0,2.5,1.1,2.7,2.7h-5.5C58.6,15.1,59.6,14,61.1,14z"
	/>
<path class="st0" d="M49.3,21h0.3h3.7l-2.2,3.4h-2.2H48c-4.8-0.1-8.3-3.9-8.3-8.6l0,0c0-4.8,3.6-8.7,8.7-8.7c3.2,0,5.1,1.1,6.6,2.6
	l-2.3,2.7c-1.3-1.2-2.6-1.9-4.3-1.9c-2.8,0-4.9,2.3-4.9,5.2l0,0c0,2.9,2,5.3,4.9,5.3"/>
<path class="st0" d="M4.8,15.9c-2-0.4-3.4,0.5-3.9,1C0.2,17.5,0,18.3,0,19.2v0.1c0,0.8,0.2,1.5,0.4,2l0,0l0,0
	c0.1,0.1,0.1,0.2,0.2,0.3c0.1,0.1,0.1,0.3,0.2,0.4c0.6,1,1.3,1.8,2.1,2.6c2.7,2.7,6.3,4.3,10.3,4.3c5.1,0,9.8-2.7,12.4-7
	c-2.1,0.5-5.6,0.7-7,0.8c-1.6,1.1-3.5,1.6-5.4,1.6c-3.3,0-6.3-1.6-8.2-4.3c2.4,0.8,8.8,1.2,8.8,1.2c7,0,14.6-1.6,14.6-1.6l2.9-4.5
	c0,0-9.1,1.8-17.3,1.8C9.7,17.1,6.7,16.4,4.8,15.9"/>
<path class="st0" d="M13.4,10.8c-4.4,0-7.2-0.6-8.9-1.3c1.7-3.1,5-5,8.6-5c2.7,0,5.3,1.1,7.2,3.1l0.1,0.1h0.1l5.3-0.4
	C23.2,2.8,18.4,0,13.2,0h-0.1c-1.9,0-3.7,0.4-5.4,1.1l0,0c-2.6,1-4.8,2.8-6.4,5.1V6.1C0.8,6.8,0,7.9,0,9.6v0.1
	c0,0.9,0.3,1.7,0.9,2.3c0,0,2,2.9,12.4,3.4c6.3,0.3,19.1-1.7,19.1-1.7l2.9-4.5C35.3,9.1,19.5,10.8,13.4,10.8"/>
</svg>
